FiraSans-CondensedBoldItalic.ufo
<glyph name="exclam" format="2">
  <advance width="230"/>
  <unicode hex="0021"/>
  <outline>
    <contour>
      <point x="39" y="267" type="line"/>
      <point x="182" y="267" type="line"/>
      <point x="266" y="696" type="line"/>
      <point x="72" y="696" type="line"/>
    </contour>
    <component base="period" xOffset="5"/>
  </outline>
</glyph>
<glyph name="quotesingle" format="2">
  <advance width="224"/>
  <unicode hex="0027"/>
  <outline>
    <contour>
      <point x="73" y="406" type="line"/>
      <point x="189" y="406" type="line"/>
      <point x="249" y="696" type="line"/>
      <point x="95" y="696" type="line"/>
    </contour>
  </outline>
</glyph>
<glyph name="parenleft" format="2">
  <advance width="284"/>
  <unicode hex="0028"/>
  <outline>
    <contour>
      <point x="244" y="866" type="line"/>
      <point x="91" y="661"/>
      <point x="4" y="487"/>
      <point x="4" y="218" type="curve" smooth="yes"/>
      <point x="4" y="56"/>
      <point x="52" y="-54"/>
      <point x="102" y="-164" type="curve"/>
      <point x="234" y="-90" type="line"/>
      <point x="200" y="-8"/>
      <point x="184" y="75"/>
      <point x="184" y="187" type="curve" smooth="yes"/>
      <point x="184" y="385"/>
      <point x="236" y="618"/>
      <point x="356" y="783" type="curve"/>
    </contour>
  </outline>
</glyph>
<glyph name="plus" format="2">
  <advance width="462"/>
  <unicode hex="002B"/>
  <outline>
    <contour>
      <point x="349" y="563" type="line"/>
      <point x="202" y="563" type="line"/>
      <point x="180" y="404" type="line"/>
      <point x="50" y="404" type="line"/>
      <point x="30" y="260" type="line"/>
      <point x="157" y="260" type="line"/>
      <point x="134" y="101" type="line"/>
      <point x="280" y="101" type="line"/>
      <point x="304" y="260" type="line"/>
      <point x="430" y="260" type="line"/>
      <point x="450" y="404" type="line"/>
      <point x="327" y="404" type="line"/>
    </contour>
  </outline>
</glyph>
<glyph name="comma" format="2">
  <advance width="219"/>
  <unicode hex="002C"/>
  <outline>
    <contour>
      <point x="95" y="182" type="curve" smooth="yes"/>
      <point x="33" y="182"/>
      <point x="-12" y="129"/>
      <point x="-12" y="68" type="curve" smooth="yes"/>
      <point x="-12" y="38"/>
      <point x="-1" y="16"/>
      <point x="22" y="0" type="curve"/>
      <point x="-42" y="-183" type="line"/>
      <point x="49" y="-183" type="line"/>
      <point x="126" y="-43" type="line" smooth="yes"/>
      <point x="163" y="25"/>
      <point x="179" y="57"/>
      <point x="179" y="97" type="curve" smooth="yes"/>
      <point x="179" y="149"/>
      <point x="147" y="182"/>
    </contour>
  </outline>
</glyph>
<glyph name="slash" format="2">
  <advance width="427"/>
  <unicode hex="002F"/>
  <outline>
    <contour>
      <point x="307" y="821" type="line"/>
      <point x="-10" y="-77" type="line"/>
      <point x="146" y="-116" type="line"/>
      <point x="462" y="783" type="line"/>
    </contour>
  </outline>
</glyph>
<glyph name="less" format="2">
  <advance width="439"/>
  <unicode hex="003C"/>
  <outline>
    <contour>
      <point x="410" y="588" type="line"/>
      <point x="36" y="414" type="line"/>
      <point x="14" y="253" type="line"/>
      <point x="335" y="78" type="line"/>
      <point x="414" y="202" type="line"/>
      <point x="174" y="328" type="line"/>
      <point x="450" y="453" type="line"/>
    </contour>
  </outline>
</glyph>
<glyph name="D" format="2">
  <advance width="550"/>
  <unicode hex="0044"/>
  <anchor x="221" y="0" name="bottom"/>
  <anchor x="284" y="348" name="center"/>
  <anchor x="298" y="696" name="top"/>
  <outline>
    <contour>
      <point x="285" y="696" type="curve" smooth="yes"/>
      <point x="88" y="696" type="line"/>
      <point x="-10" y="0" type="line"/>
      <point x="198" y="0" type="line" smooth="yes"/>
      <point x="449" y="0"/>
      <point x="549" y="182"/>
      <point x="549" y="445" type="curve" smooth="yes"/>
      <point x="549" y="653"/>
      <point x="424" y="696"/>
    </contour>
    <contour>
      <point x="289" y="557" type="line" smooth="yes"/>
      <point x="332" y="557"/>
      <point x="353" y="528"/>
      <point x="353" y="452" type="curve" smooth="yes"/>
      <point x="353" y="329"/>
      <point x="326" y="140"/>
      <point x="227" y="140" type="curve" smooth="yes"/>
      <point x="204" y="140" type="line"/>
      <point x="262" y="557" type="line"/>
    </contour>
  </outline>
</glyph>
<glyph name="F" format="2">
  <advance width="397"/>
  <unicode hex="0046"/>
  <anchor x="162" y="0" name="bottom"/>
  <anchor x="274" y="696" name="top"/>
  <outline>
    <contour>
      <point x="462" y="696" type="line"/>
      <point x="88" y="696" type="line"/>
      <point x="-10" y="0" type="line"/>
      <point x="184" y="0" type="line"/>
      <point x="221" y="261" type="line"/>
      <point x="361" y="261" type="line"/>
      <point x="383" y="399" type="line"/>
      <point x="241" y="399" type="line"/>
      <point x="263" y="559" type="line"/>
      <point x="419" y="559" type="line"/>
    </contour>
  </outline>
</glyph>
<glyph name="J" format="2">
  <advance width="278"/>
  <unicode hex="004A"/>
  <anchor x="213" y="696" name="top"/>
  <outline>
    <contour>
      <point x="311" y="696" type="line"/>
      <point x="117" y="696" type="line"/>
      <point x="36" y="118" type="line" smooth="yes"/>
      <point x="24" y="30"/>
      <point x="5" y="-16"/>
      <point x="-65" y="-46" type="curve"/>
      <point x="-33" y="-185" type="line"/>
      <point x="83" y="-146"/>
      <point x="201" y="-89"/>
      <point x="229" y="109" type="curve" smooth="yes"/>
    </contour>
  </outline>
</glyph>
<glyph name="K" format="2">
  <advance width="566"/>
  <unicode hex="004B"/>
  <anchor x="239" y="0" name="bottom"/>
  <anchor x="333" y="696" name="top"/>
  <outline>
    <contour>
      <point x="329" y="0" type="line"/>
      <point x="538" y="0" type="line"/>
      <point x="435" y="376" type="line"/>
      <point x="620" y="696" type="line"/>
      <point x="428" y="696" type="line"/>
      <point x="241" y="371" type="line"/>
    </contour>
    <contour>
      <point x="-10" y="0" type="line"/>
      <point x="184" y="0" type="line"/>
      <point x="282" y="696" type="line"/>
      <point x="88" y="696" type="line"/>
    </contour>
  </outline>
</glyph>
<glyph name="L" format="2">
  <advance width="428"/>
  <unicode hex="004C"/>
  <anchor x="181" y="0" name="bottom"/>
  <anchor x="354" y="403" name="center"/>
  <anchor x="185" y="696" name="top"/>
  <anchor x="296" y="696" name="topright"/>
  <outline>
    <contour>
      <point x="282" y="696" type="line"/>
      <point x="88" y="696" type="line"/>
      <point x="-10" y="0" type="line"/>
      <point x="371" y="0" type="line"/>
      <point x="414" y="152" type="line"/>
      <point x="206" y="152" type="line"/>
    </contour>
  </outline>
</glyph>
<glyph name="N" format="2">
  <advance width="530"/>
  <unicode hex="004E"/>
  <anchor x="228" y="0" name="bottom"/>
  <anchor x="322" y="696" name="top"/>
  <outline>
    <contour>
      <point x="561" y="696" type="line"/>
      <point x="395" y="696" type="line"/>
      <point x="367" y="472" type="line" smooth="yes"/>
      <point x="352" y="349"/>
      <point x="355" y="272"/>
      <point x="359" y="162" type="curve"/>
      <point x="316" y="696" type="line"/>
      <point x="88" y="696" type="line"/>
      <point x="-9" y="0" type="line"/>
      <point x="158" y="0" type="line"/>
      <point x="184" y="213" type="line" smooth="yes"/>
      <point x="200" y="341"/>
      <point x="196" y="436"/>
      <point x="192" y="533" type="curve"/>
      <point x="237" y="0" type="line"/>
      <point x="464" y="0" type="line"/>
    </contour>
  </outline>
</glyph>
<glyph name="P" format="2">
  <advance width="505"/>
  <unicode hex="0050"/>
  <anchor x="212" y="0" name="bottom"/>
  <anchor x="311" y="696" name="top"/>
  <anchor x="86" y="696" name="topleft"/>
  <outline>
    <contour>
      <point x="88" y="696" type="line"/>
      <point x="-10" y="0" type="line"/>
      <point x="184" y="0" type="line"/>
      <point x="262" y="559" type="line"/>
      <point x="276" y="559" type="line" smooth="yes"/>
      <point x="315" y="559"/>
      <point x="332" y="542"/>
      <point x="332" y="496" type="curve" smooth="yes"/>
      <point x="332" y="422"/>
      <point x="311" y="359"/>
      <point x="243" y="359" type="curve" smooth="yes"/>
      <point x="221" y="359" type="line"/>
      <point x="201" y="220" type="line"/>
      <point x="245" y="220" type="line" smooth="yes"/>
      <point x="421" y="220"/>
      <point x="529" y="332"/>
      <point x="529" y="499" type="curve" smooth="yes"/>
      <point x="529" y="629"/>
      <point x="444" y="696"/>
      <point x="286" y="696" type="curve" smooth="yes"/>
    </contour>
  </outline>
</glyph>
<glyph name="T" format="2">
  <advance width="457"/>
  <unicode hex="0054"/>
  <anchor x="191" y="0" name="bottom"/>
  <anchor x="297" y="0" name="bottomright"/>
  <anchor x="240" y="348" name="center"/>
  <anchor x="289" y="696" name="top"/>
  <outline>
    <contour>
      <point x="524" y="696" type="line"/>
      <point x="60" y="696" type="line"/>
      <point x="39" y="548" type="line"/>
      <point x="171" y="548" type="line"/>
      <point x="94" y="0" type="line"/>
      <point x="288" y="0" type="line"/>
      <point x="365" y="548" type="line"/>
      <point x="483" y="548" type="line"/>
    </contour>
  </outline>
</glyph>
<glyph name="V" format="2">
  <advance width="486"/>
  <unicode hex="0056"/>
  <anchor x="212" y="0" name="bottom"/>
  <anchor x="302" y="696" name="top"/>
  <outline>
    <contour>
      <point x="566" y="696" type="line"/>
      <point x="369" y="696" type="line"/>
      <point x="233" y="140" type="line"/>
      <point x="237" y="696" type="line"/>
      <point x="40" y="696" type="line"/>
      <point x="84" y="0" type="line"/>
      <point x="341" y="0" type="line"/>
    </contour>
  </outline>
</glyph>
<glyph name="W" format="2">
  <advance width="710"/>
  <unicode hex="0057"/>
  <anchor x="317" y="0" name="bottom"/>
  <anchor x="418" y="696" name="top"/>
  <outline>
    <contour>
      <point x="770" y="696" type="line"/>
      <point x="583" y="696" type="line"/>
      <point x="473" y="144" type="line"/>
      <point x="513" y="696" type="line"/>
      <point x="319" y="696" type="line"/>
      <point x="196" y="144" type="line"/>
      <point x="250" y="696" type="line"/>
      <point x="60" y="696" type="line"/>
      <point x="30" y="0" type="line"/>
      <point x="283" y="0" type="line"/>
      <point x="386" y="511" type="line"/>
      <point x="347" y="0" type="line"/>
      <point x="602" y="0" type="line"/>
    </contour>
  </outline>
</glyph>
<glyph name="X" format="2">
  <advance width="503"/>
  <unicode hex="0058"/>
  <anchor x="213" y="0" name="bottom"/>
  <anchor x="423" y="0" name="bottomright"/>
  <anchor x="311" y="696" name="top"/>
  <outline>
    <contour>
      <point x="259" y="696" type="line"/>
      <point x="56" y="696" type="line"/>
      <point x="145" y="369" type="line"/>
      <point x="246" y="255" type="line"/>
      <point x="274" y="0" type="line"/>
      <point x="477" y="0" type="line"/>
      <point x="378" y="375" type="line"/>
      <point x="275" y="476" type="line"/>
    </contour>
    <contour>
      <point x="564" y="696" type="line"/>
      <point x="356" y="696" type="line"/>
      <point x="275" y="476" type="line"/>
      <point x="144" y="369" type="line"/>
      <point x="-50" y="0" type="line"/>
      <point x="160" y="0" type="line"/>
      <point x="246" y="255" type="line"/>
      <point x="378" y="375" type="line"/>
    </contour>
  </outline>
</glyph>
<glyph name="Z" format="2">
  <advance width="457"/>
  <unicode hex="005A"/>
  <anchor x="180" y="0" name="bottom"/>
  <anchor x="285" y="696" name="top"/>
  <outline>
    <contour>
      <point x="-35" y="0" type="line"/>
      <point x="395" y="0" type="line"/>
      <point x="438" y="155" type="line"/>
      <point x="198" y="155" type="line"/>
      <point x="477" y="549" type="line"/>
      <point x="499" y="696" type="line"/>
      <point x="82" y="696" type="line"/>
      <point x="59" y="546" type="line"/>
      <point x="265" y="546" type="line"/>
      <point x="-14" y="145" type="line"/>
    </contour>
  </outline>
</glyph>
<glyph name="bracketleft" format="2">
  <advance width="274"/>
  <unicode hex="005B"/>
  <outline>
    <contour>
      <point x="346" y="826" type="line"/>
      <point x="85" y="826" type="line"/>
      <point x="-51" y="-126" type="line"/>
      <point x="214" y="-126" type="line"/>
      <point x="234" y="11" type="line"/>
      <point x="149" y="11" type="line"/>
      <point x="239" y="688" type="line"/>
      <point x="327" y="688" type="line"/>
    </contour>
  </outline>
</glyph>
<glyph name="backslash" format="2">
  <advance width="434"/>
  <unicode hex="005C"/>
  <outline>
    <contour>
      <point x="279" y="813" type="line"/>
      <point x="111" y="783" type="line"/>
      <point x="177" y="-116" type="line"/>
      <point x="346" y="-86" type="line"/>
    </contour>
  </outline>
</glyph>
<glyph name="bracketright" format="2">
  <advance width="272"/>
  <unicode hex="005D"/>
  <outline>
    <contour>
      <point x="347" y="826" type="line"/>
      <point x="83" y="826" type="line"/>
      <point x="65" y="689" type="line"/>
      <point x="148" y="689" type="line"/>
      <point x="58" y="12" type="line"/>
      <point x="-29" y="12" type="line"/>
      <point x="-49" y="-126" type="line"/>
      <point x="212" y="-126" type="line"/>
    </contour>
  </outline>
</glyph>
<glyph name="asciicircum" format="2">
  <advance width="476"/>
  <unicode hex="005E"/>
  <outline>
    <contour>
      <point x="405" y="847" type="line"/>
      <point x="234" y="847" type="line"/>
      <point x="37" y="527" type="line"/>
      <point x="219" y="527" type="line"/>
      <point x="298" y="710" type="line"/>
      <point x="339" y="527" type="line"/>
      <point x="513" y="527" type="line"/>
    </contour>
  </outline>
</glyph>
<glyph name="underscore" format="2">
  <advance width="426"/>
  <unicode hex="005F"/>
  <outline>
    <contour>
      <point x="-58" y="-185" type="line"/>
      <point x="357" y="-185" type="line"/>
      <point x="377" y="-40" type="line"/>
      <point x="-38" y="-40" type="line"/>
    </contour>
  </outline>
</glyph>
<glyph name="l" format="2">
  <advance width="251"/>
  <unicode hex="006C"/>
  <anchor x="111" y="0" name="bottom"/>
  <anchor x="352" y="374" name="center"/>
  <anchor x="178" y="744" name="top"/>
  <anchor x="289" y="744" name="topright"/>
  <outline>
    <contour>
      <point x="273" y="763" type="line"/>
      <point x="86" y="744" type="line"/>
      <point x="2" y="140" type="line" smooth="yes"/>
      <point x="-12" y="42"/>
      <point x="31" y="-19"/>
      <point x="128" y="-19" type="curve" smooth="yes"/>
      <point x="165" y="-19"/>
      <point x="203" y="-10"/>
      <point x="229" y="1" type="curve"/>
      <point x="218" y="132" type="line"/>
      <point x="214" y="131"/>
      <point x="210" y="130"/>
      <point x="205" y="130" type="curve" smooth="yes"/>
      <point x="193" y="130"/>
      <point x="188" y="137"/>
      <point x="191" y="156" type="curve" smooth="yes"/>
    </contour>
  </outline>
</glyph>
<glyph name="v" format="2">
  <advance width="438"/>
  <unicode hex="0076"/>
  <anchor x="187" y="0" name="bottom"/>
  <anchor x="259" y="534" name="top"/>
  <outline>
    <contour>
      <point x="491" y="534" type="line"/>
      <point x="299" y="534" type="line"/>
      <point x="207" y="138" type="line"/>
      <point x="218" y="534" type="line"/>
      <point x="23" y="534" type="line"/>
      <point x="75" y="0" type="line"/>
      <point x="300" y="0" type="line"/>
    </contour>
  </outline>
</glyph>
<glyph name="w" format="2">
  <advance width="643"/>
  <unicode hex="0077"/>
  <anchor x="289" y="0" name="bottom"/>
  <anchor x="359" y="534" name="top"/>
  <outline>
    <contour>
      <point x="684" y="534" type="line"/>
      <point x="505" y="534" type="line"/>
      <point x="432" y="144" type="line"/>
      <point x="448" y="534" type="line"/>
      <point x="279" y="534" type="line"/>
      <point x="181" y="144" type="line"/>
      <point x="222" y="534" type="line"/>
      <point x="35" y="534" type="line"/>
      <point x="42" y="0" type="line"/>
      <point x="252" y="0" type="line"/>
      <point x="333" y="364" type="line"/>
      <point x="324" y="0" type="line"/>
      <point x="529" y="0" type="line"/>
    </contour>
  </outline>
</glyph>
<glyph name="x" format="2">
  <advance width="438"/>
  <unicode hex="0078"/>
  <anchor x="179" y="0" name="bottom"/>
  <anchor x="358" y="0" name="bottomright"/>
  <anchor x="252" y="534" name="top"/>
  <outline>
    <contour>
      <point x="219" y="534" type="line"/>
      <point x="24" y="534" type="line"/>
      <point x="106" y="283" type="line"/>
      <point x="200" y="181" type="line"/>
      <point x="227" y="0" type="line"/>
      <point x="420" y="0" type="line"/>
      <point x="335" y="281" type="line"/>
      <point x="235" y="374" type="line"/>
    </contour>
    <contour>
      <point x="469" y="534" type="line"/>
      <point x="286" y="534" type="line"/>
      <point x="235" y="374" type="line"/>
      <point x="106" y="283" type="line"/>
      <point x="-58" y="0" type="line"/>
      <point x="130" y="0" type="line"/>
      <point x="200" y="181" type="line"/>
      <point x="335" y="281" type="line"/>
    </contour>
  </outline>
</glyph>
<glyph name="y" format="2">
  <advance width="445"/>
  <unicode hex="0079"/>
  <anchor x="164" y="-215" name="bottom"/>
  <anchor x="260" y="534" name="top"/>
  <outline>
    <contour>
      <point x="498" y="534" type="line"/>
      <point x="302" y="534" type="line"/>
      <point x="198" y="118" type="line"/>
      <point x="215" y="534" type="line"/>
      <point x="23" y="534" type="line"/>
      <point x="64" y="0" type="line"/>
      <point x="130" y="1" type="line"/>
      <point x="98" y="-67"/>
      <point x="57" y="-89"/>
      <point x="-27" y="-100" type="curve"/>
      <point x="-25" y="-227" type="line"/>
      <point x="127" y="-221"/>
      <point x="237" y="-162"/>
      <point x="298" y="0" type="curve" smooth="yes"/>
    </contour>
  </outline>
</glyph>
<glyph name="bar" format="2">
  <advance width="285"/>
  <unicode hex="007C"/>
  <outline>
    <contour>
      <point x="307" y="812" type="line"/>
      <point x="131" y="812" type="line"/>
      <point x="3" y="-107" type="line"/>
      <point x="178" y="-107" type="line"/>
    </contour>
  </outline>
</glyph>
<glyph name="exclamdown" format="2">
  <advance width="231"/>
  <unicode hex="00A1"/>
  <outline>
    <contour>
      <point x="175" y="229" type="line"/>
      <point x="32" y="229" type="line"/>
      <point x="-55" y="-207" type="line"/>
      <point x="139" y="-207" type="line"/>
    </contour>
    <component base="period" xOffset="53" yOffset="335"/>
  </outline>
</glyph>
<glyph name="logicalnot" format="2">
  <advance width="463"/>
  <unicode hex="00AC"/>
  <outline>
    <contour>
      <point x="451" y="404" type="line"/>
      <point x="50" y="404" type="line"/>
      <point x="30" y="259" type="line"/>
      <point x="270" y="259" type="line"/>
      <point x="249" y="100" type="line"/>
      <point x="406" y="100" type="line"/>
    </contour>
  </outline>
</glyph>
<glyph name="AE" format="2">
  <advance width="713"/>
  <unicode hex="00C6"/>
  <anchor x="322" y="0" name="bottom"/>
  <anchor x="464" y="696" name="top"/>
  <outline>
    <contour>
      <point x="739" y="696" type="line"/>
      <point x="247" y="696" type="line"/>
      <point x="-56" y="0" type="line"/>
      <point x="155" y="0" type="line"/>
      <point x="349" y="555" type="line"/>
      <point x="324" y="0" type="line"/>
      <point x="668" y="0" type="line"/>
      <point x="690" y="139" type="line"/>
      <point x="503" y="139" type="line"/>
      <point x="515" y="559" type="line"/>
      <point x="698" y="559" type="line"/>
    </contour>
    <contour>
      <point x="343" y="277" type="line"/>
      <point x="248" y="277" type="line"/>
      <point x="187" y="138" type="line"/>
      <point x="336" y="138" type="line"/>
    </contour>
    <contour>
      <point x="694" y="418" type="line"/>
      <point x="495" y="418" type="line"/>
      <point x="497" y="284" type="line"/>
      <point x="673" y="284" type="line"/>
    </contour>
  </outline>
</glyph>
<glyph name="Thorn" format="2">
  <advance width="507"/>
  <unicode hex="00DE"/>
  <anchor x="219" y="0" name="bottom"/>
  <anchor x="317" y="696" name="top"/>
  <outline>
    <contour>
      <point x="273" y="591" type="curve" smooth="yes"/>
      <point x="151" y="591" type="line"/>
      <point x="143" y="454" type="line"/>
      <point x="263" y="454" type="line" smooth="yes"/>
      <point x="302" y="454"/>
      <point x="319" y="437"/>
      <point x="319" y="387" type="curve" smooth="yes"/>
      <point x="319" y="310"/>
      <point x="298" y="247"/>
      <point x="230" y="247" type="curve" smooth="yes"/>
      <point x="208" y="247" type="line"/>
      <point x="188" y="108" type="line"/>
      <point x="232" y="108" type="line" smooth="yes"/>
      <point x="408" y="108"/>
      <point x="516" y="220"/>
      <point x="516" y="390" type="curve" smooth="yes"/>
      <point x="516" y="524"/>
      <point x="431" y="591"/>
    </contour>
    <contour>
      <point x="282" y="696" type="line"/>
      <point x="88" y="696" type="line"/>
      <point x="-9" y="0" type="line"/>
      <point x="185" y="0" type="line"/>
    </contour>
  </outline>
</glyph>
<glyph name="dotlessi" format="2">
  <advance width="236"/>
  <unicode hex="0131"/>
  <anchor x="81" y="0" name="bottom"/>
  <anchor x="138" y="0" name="ogonek"/>
  <anchor x="155" y="534" name="top"/>
  <outline>
    <contour>
      <point x="248" y="534" type="line"/>
      <point x="62" y="534" type="line"/>
      <point x="-12" y="0" type="line"/>
      <point x="174" y="0" type="line"/>
    </contour>
  </outline>
</glyph>
<glyph name="dotlessj" format="2">
  <advance width="235"/>
  <unicode hex="0237"/>
  <anchor x="46" y="-215" name="bottom"/>
  <anchor x="156" y="534" name="top"/>
  <outline>
    <contour>
      <point x="-73" y="-226" type="line"/>
      <point x="43" y="-184"/>
      <point x="155" y="-128"/>
      <point x="184" y="73" type="curve" smooth="yes"/>
      <point x="249" y="534" type="line"/>
      <point x="62" y="534" type="line"/>
      <point x="-3" y="63" type="line" smooth="yes"/>
      <point x="-16" y="-30"/>
      <point x="-48" y="-63"/>
      <point x="-114" y="-90" type="curve"/>
    </contour>
  </outline>
</glyph>
<glyph name="gravecomb" format="2">
  <unicode hex="0300"/>
  <anchor x="187" y="534" name="_top"/>
  <anchor x="228" y="844" name="top"/>
  <outline>
    <contour>
      <point x="173" y="842" type="line"/>
      <point x="93" y="713" type="line"/>
      <point x="297" y="618" type="line"/>
      <point x="351" y="699" type="line"/>
    </contour>
  </outline>
</glyph>
<glyph name="circumflexcomb" format="2">
  <unicode hex="0302"/>
  <anchor x="245" y="534" name="_top"/>
  <anchor x="286" y="836" name="top"/>
  <outline>
    <contour>
      <point x="149" y="616" type="line"/>
      <point x="275" y="713" type="line"/>
      <point x="373" y="616" type="line"/>
      <point x="449" y="679" type="line"/>
      <point x="341" y="836" type="line"/>
      <point x="231" y="836" type="line"/>
      <point x="89" y="688" type="line"/>
    </contour>
  </outline>
</glyph>
<glyph name="macroncomb" format="2">
  <unicode hex="0304"/>
  <anchor x="207" y="534" name="_top"/>
  <anchor x="235" y="779" name="top"/>
  <outline>
    <contour>
      <point x="358" y="649" type="line"/>
      <point x="379" y="779" type="line"/>
      <point x="104" y="779" type="line"/>
      <point x="84" y="649" type="line"/>
    </contour>
  </outline>
</glyph>
<glyph name="Delta" format="2">
  <advance width="512"/>
  <unicode hex="0394"/>
  <anchor x="217" y="0" name="bottom"/>
  <anchor x="315" y="696" name="top"/>
  <outline>
    <contour>
      <point x="295" y="555" type="line"/>
      <point x="295" y="141" type="line"/>
      <point x="189" y="141" type="line"/>
    </contour>
    <contour>
      <point x="431" y="696" type="line"/>
      <point x="200" y="696" type="line"/>
      <point x="-58" y="0" type="line"/>
      <point x="494" y="0" type="line"/>
    </contour>
  </outline>
</glyph>
<glyph name="mu" format="2">
  <advance width="473"/>
  <unicode hex="03BC"/>
  <anchor x="273" y="534" name="top"/>
  <outline>
    <contour>
      <point x="427" y="183" type="curve" smooth="yes"/>
      <point x="476" y="534" type="line"/>
      <point x="290" y="534" type="line"/>
      <point x="239" y="169" type="line"/>
      <point x="227" y="141"/>
      <point x="215" y="127"/>
      <point x="205" y="127" type="curve" smooth="yes"/>
      <point x="195" y="127"/>
      <point x="193" y="136"/>
      <point x="197" y="165" type="curve" smooth="yes"/>
      <point x="247" y="534" type="line"/>
      <point x="62" y="534" type="line"/>
      <point x="-45" y="-224" type="line"/>
      <point x="129" y="-207" type="line"/>
      <point x="141" y="-122" type="line" smooth="yes"/>
      <point x="150" y="-59"/>
      <point x="145" y="-21"/>
      <point x="139" y="10" type="curve"/>
      <point x="147" y="1"/>
      <point x="156" y="-6"/>
      <point x="174" y="-6" type="curve" smooth="yes"/>
      <point x="200" y="-6"/>
      <point x="217" y="10"/>
      <point x="241" y="47" type="curve"/>
      <point x="241" y="23"/>
      <point x="243" y="7"/>
      <point x="247" y="-18" type="curve"/>
      <point x="420" y="-1" type="line"/>
      <point x="416" y="40"/>
      <point x="416" y="101"/>
    </contour>
  </outline>
</glyph>
<glyph name="endash" format="2">
  <advance width="432"/>
  <unicode hex="2013"/>
  <outline>
    <contour>
      <point x="12" y="241" type="line"/>
      <point x="413" y="241" type="line"/>
      <point x="433" y="385" type="line"/>
      <point x="32" y="385" type="line"/>
    </contour>
  </outline>
</glyph>
<glyph name="emdash" format="2">
  <advance width="659"/>
  <unicode hex="2014"/>
  <outline>
    <contour>
      <point x="12" y="241" type="line"/>
      <point x="640" y="241" type="line"/>
      <point x="660" y="385" type="line"/>
      <point x="32" y="385" type="line"/>
    </contour>
  </outline>
</glyph>
<glyph name="quotesinglbase" format="2">
  <advance width="229"/>
  <unicode hex="201A"/>
  <outline>
    <contour>
      <point x="95" y="160" type="curve" smooth="yes"/>
      <point x="38" y="160"/>
      <point x="-3" y="116"/>
      <point x="-3" y="62" type="curve" smooth="yes"/>
      <point x="-3" y="34"/>
      <point x="7" y="14"/>
      <point x="28" y="-1" type="curve"/>
      <point x="-30" y="-167" type="line"/>
      <point x="53" y="-167" type="line"/>
      <point x="122" y="-40" type="line" smooth="yes"/>
      <point x="156" y="22"/>
      <point x="171" y="51"/>
      <point x="171" y="85" type="curve" smooth="yes"/>
      <point x="171" y="130"/>
      <point x="142" y="160"/>
    </contour>
  </outline>
</glyph>
<glyph name="dagger" format="2">
  <advance width="447"/>
  <unicode hex="2020"/>
  <outline>
    <contour>
      <point x="373" y="680" type="line"/>
      <point x="200" y="680" type="line"/>
      <point x="180" y="542" type="line"/>
      <point x="47" y="542" type="line"/>
      <point x="25" y="390" type="line"/>
      <point x="159" y="390" type="line"/>
      <point x="104" y="0" type="line"/>
      <point x="275" y="0" type="line"/>
      <point x="332" y="390" type="line"/>
      <point x="456" y="390" type="line"/>
      <point x="478" y="542" type="line"/>
      <point x="352" y="542" type="line"/>
    </contour>
  </outline>
</glyph>
<glyph name="daggerdbl" format="2">
  <advance width="448"/>
  <unicode hex="2021"/>
  <outline>
    <contour>
      <point x="443" y="291" type="line"/>
      <point x="13" y="291" type="line"/>
      <point x="-10" y="138" type="line"/>
      <point x="420" y="138" type="line"/>
    </contour>
    <component base="dagger"/>
  </outline>
</glyph>
<glyph name="guilsinglleft" format="2">
  <advance width="312"/>
  <unicode hex="2039"/>
  <outline>
    <contour>
      <point x="225" y="566" type="line"/>
      <point x="29" y="342" type="line"/>
      <point x="9" y="224" type="line"/>
      <point x="142" y="0" type="line"/>
      <point x="270" y="78" type="line"/>
      <point x="199" y="281" type="line"/>
      <point x="328" y="489" type="line"/>
    </contour>
  </outline>
</glyph>
<glyph name="guilsinglright" format="2">
  <advance width="312"/>
  <unicode hex="203A"/>
  <outline>
    <contour>
      <point x="176" y="566" type="line"/>
      <point x="46" y="489" type="line"/>
      <point x="119" y="285" type="line"/>
      <point x="-12" y="78" type="line"/>
      <point x="92" y="0" type="line"/>
      <point x="289" y="224" type="line"/>
      <point x="308" y="342" type="line"/>
    </contour>
  </outline>
</glyph>
<glyph name="fraction" format="2">
  <advance width="160"/>
  <unicode hex="2044"/>
  <outline>
    <contour>
      <point x="251" y="761" type="line"/>
      <point x="-195" y="-38" type="line"/>
      <point x="-100" y="-89" type="line"/>
      <point x="345" y="710" type="line"/>
    </contour>
  </outline>
</glyph>
<glyph name="summation" format="2">
  <advance width="442"/>
  <unicode hex="2211"/>
  <outline>
    <contour>
      <point x="487" y="680" type="line"/>
      <point x="71" y="680" type="line"/>
      <point x="51" y="549" type="line"/>
      <point x="180" y="354" type="line"/>
      <point x="-3" y="132" type="line"/>
      <point x="-23" y="0" type="line"/>
      <point x="393" y="0" type="line"/>
      <point x="413" y="139" type="line"/>
      <point x="190" y="139" type="line"/>
      <point x="335" y="307" type="line"/>
      <point x="345" y="375" type="line"/>
      <point x="235" y="541" type="line"/>
      <point x="467" y="541" type="line"/>
    </contour>
  </outline>
</glyph>
<glyph name="lozenge" format="2">
  <advance width="503"/>
  <unicode hex="25CA"/>
  <outline>
    <contour>
      <point x="405" y="680" type="line"/>
      <point x="206" y="680" type="line"/>
      <point x="27" y="339" type="line"/>
      <point x="111" y="0" type="line"/>
      <point x="310" y="0" type="line"/>
      <point x="491" y="339" type="line"/>
    </contour>
    <contour>
      <point x="285" y="548" type="line"/>
      <point x="319" y="340" type="line"/>
      <point x="231" y="131" type="line"/>
      <point x="199" y="340" type="line"/>
    </contour>
  </outline>
</glyph>
<glyph name="acute.case.loclPLK" format="2">
  <advance width="315"/>
  <anchor x="239" y="695" name="_top"/>
  <outline>
    <contour>
      <point x="259" y="983" type="line"/>
      <point x="159" y="792" type="line"/>
      <point x="233" y="745" type="line"/>
      <point x="381" y="908" type="line"/>
    </contour>
  </outline>
</glyph>
<glyph name="acute.loclPLK" format="2">
  <advance width="316"/>
  <anchor x="199" y="533" name="_top"/>
  <outline>
    <contour>
      <point x="237" y="825" type="line"/>
      <point x="138" y="630" type="line"/>
      <point x="212" y="583" type="line"/>
      <point x="359" y="749" type="line"/>
    </contour>
  </outline>
</glyph>
<glyph name="acute.sc.loclPLK" format="2">
  <advance width="316"/>
  <anchor x="211" y="570" name="_top"/>
  <outline>
    <contour>
      <point x="240" y="872" type="line"/>
      <point x="141" y="677" type="line"/>
      <point x="216" y="630" type="line"/>
      <point x="363" y="796" type="line"/>
    </contour>
  </outline>
</glyph>
<glyph name="acutecomb.case" format="2">
  <anchor x="212" y="696" name="_top"/>
  <anchor x="241" y="979" name="top"/>
  <outline>
    <contour>
      <point x="318" y="962" type="line"/>
      <point x="109" y="830" type="line"/>
      <point x="152" y="743" type="line"/>
      <point x="378" y="831" type="line"/>
    </contour>
  </outline>
</glyph>
<glyph name="c.sc" format="2">
  <advance width="437"/>
  <anchor x="213" y="0" name="bottom"/>
  <anchor x="313" y="571" name="top"/>
  <outline>
    <contour>
      <point x="306" y="587" type="curve" smooth="yes"/>
      <point x="118" y="587"/>
      <point x="16" y="417"/>
      <point x="16" y="217" type="curve" smooth="yes"/>
      <point x="16" y="56"/>
      <point x="101" y="-18"/>
      <point x="219" y="-18" type="curve" smooth="yes"/>
      <point x="300" y="-18"/>
      <point x="366" y="18"/>
      <point x="413" y="63" type="curve"/>
      <point x="344" y="165" type="line"/>
      <point x="312" y="138"/>
      <point x="286" y="122"/>
      <point x="256" y="122" type="curve" smooth="yes"/>
      <point x="222" y="122"/>
      <point x="204" y="139"/>
      <point x="204" y="209" type="curve" smooth="yes"/>
      <point x="204" y="298"/>
      <point x="231" y="453"/>
      <point x="305" y="453" type="curve" smooth="yes"/>
      <point x="333" y="453"/>
      <point x="352" y="440"/>
      <point x="376" y="417" type="curve"/>
      <point x="470" y="516" type="line"/>
      <point x="430" y="559"/>
      <point x="378" y="587"/>
    </contour>
  </outline>
</glyph>
<glyph name="d.sc" format="2">
  <advance width="498"/>
  <anchor x="181" y="0" name="bottom"/>
  <anchor x="249" y="286" name="center"/>
  <anchor x="257" y="571" name="top"/>
  <outline>
    <contour>
      <point x="254" y="571" type="curve" smooth="yes"/>
      <point x="71" y="571" type="line"/>
      <point x="-9" y="0" type="line"/>
      <point x="182" y="0" type="line" smooth="yes"/>
      <point x="388" y="0"/>
      <point x="487" y="142"/>
      <point x="487" y="357" type="curve" smooth="yes"/>
      <point x="487" y="532"/>
      <point x="378" y="571"/>
    </contour>
    <contour>
      <point x="255" y="440" type="line" smooth="yes"/>
      <point x="284" y="440"/>
      <point x="301" y="432"/>
      <point x="301" y="373" type="curve" smooth="yes"/>
      <point x="301" y="277"/>
      <point x="274" y="132"/>
      <point x="209" y="132" type="curve" smooth="yes"/>
      <point x="195" y="132" type="line"/>
      <point x="238" y="440" type="line"/>
    </contour>
  </outline>
</glyph>
<glyph name="daggerdbl.tf" format="2">
  <advance width="460"/>
  <outline>
    <contour>
      <point x="444" y="293" type="line"/>
      <point x="19" y="293" type="line"/>
      <point x="-3" y="140" type="line"/>
      <point x="422" y="140" type="line"/>
    </contour>
    <component base="dagger.tf"/>
  </outline>
</glyph>
<glyph name="eth.sc" format="2">
  <advance width="511"/>
  <anchor x="194" y="0" name="bottom"/>
  <anchor x="262" y="286" name="center"/>
  <anchor x="270" y="571" name="top"/>
  <outline>
    <contour>
      <point x="-4" y="243" type="line"/>
      <point x="265" y="243" type="line"/>
      <point x="280" y="343" type="line"/>
      <point x="52" y="343" type="line"/>
      <point x="10" y="343" type="line"/>
    </contour>
    <component base="d.sc" xOffset="13"/>
  </outline>
</glyph>
<glyph name="four.dnom" format="2">
  <advance width="338"/>
  <outline>
    <contour>
      <point x="128" y="435" type="line"/>
      <point x="-1" y="168" type="line"/>
      <point x="-13" y="78" type="line"/>
      <point x="298" y="78" type="line"/>
      <point x="312" y="177" type="line"/>
      <point x="136" y="177" type="line"/>
      <point x="231" y="394" type="line"/>
    </contour>
    <contour>
      <point x="294" y="267" type="line"/>
      <point x="208" y="267" type="line"/>
      <point x="164" y="170" type="line"/>
      <point x="140" y="0" type="line"/>
      <point x="257" y="0" type="line"/>
    </contour>
  </outline>
</glyph>
<glyph name="four.osf" format="2">
  <advance width="475"/>
  <outline>
    <contour>
      <point x="198" y="586" type="line"/>
      <point x="-9" y="145" type="line"/>
      <point x="-26" y="23" type="line"/>
      <point x="440" y="23" type="line"/>
      <point x="460" y="161" type="line"/>
      <point x="188" y="161" type="line"/>
      <point x="351" y="528" type="line"/>
    </contour>
    <contour>
      <point x="431" y="314" type="line"/>
      <point x="281" y="314" type="line"/>
      <point x="235" y="145" type="line"/>
      <point x="197" y="-112" type="line"/>
      <point x="370" y="-112" type="line"/>
    </contour>
  </outline>
</glyph>
<glyph name="h.sc" format="2">
  <advance width="488"/>
  <anchor x="429" y="0" name="bottomright"/>
  <anchor x="246" y="286" name="center"/>
  <anchor x="286" y="571" name="top"/>
  <outline>
    <contour>
      <point x="502" y="571" type="line"/>
      <point x="316" y="571" type="line"/>
      <point x="287" y="367" type="line"/>
      <point x="228" y="367" type="line"/>
      <point x="257" y="571" type="line"/>
      <point x="71" y="571" type="line"/>
      <point x="-9" y="0" type="line"/>
      <point x="177" y="0" type="line"/>
      <point x="208" y="223" type="line"/>
      <point x="267" y="223" type="line"/>
      <point x="236" y="0" type="line"/>
      <point x="422" y="0" type="line"/>
    </contour>
  </outline>
</glyph>
<glyph name="i.sc" format="2">
  <advance width="243"/>
  <anchor x="84" y="0" name="bottom"/>
  <anchor x="142" y="0" name="ogonek"/>
  <anchor x="164" y="571" name="top"/>
  <outline>
    <contour>
      <point x="257" y="571" type="line"/>
      <point x="71" y="571" type="line"/>
      <point x="-9" y="0" type="line"/>
      <point x="177" y="0" type="line"/>
    </contour>
  </outline>
</glyph>
<glyph name="minus.dnom" format="2">
  <advance width="338"/>
  <outline>
    <contour>
      <point x="24" y="155" type="line"/>
      <point x="281" y="155" type="line"/>
      <point x="296" y="254" type="line"/>
      <point x="39" y="254" type="line"/>
    </contour>
  </outline>
</glyph>
<glyph name="one.dnom" format="2">
  <advance width="338"/>
  <outline>
    <contour>
      <point x="289" y="424" type="line"/>
      <point x="170" y="424" type="line"/>
      <point x="22" y="332" type="line"/>
      <point x="69" y="247" type="line"/>
      <point x="142" y="298" type="line"/>
      <point x="102" y="0" type="line"/>
      <point x="230" y="0" type="line"/>
    </contour>
  </outline>
</glyph>
<glyph name="one.tf" format="2">
  <advance width="460"/>
  <outline>
    <contour>
      <point x="415" y="696" type="line"/>
      <point x="250" y="696" type="line"/>
      <point x="27" y="554" type="line"/>
      <point x="93" y="433" type="line"/>
      <point x="206" y="509" type="line"/>
      <point x="158" y="109" type="line"/>
      <point x="338" y="109" type="line"/>
    </contour>
    <contour>
      <point x="434" y="142" type="line"/>
      <point x="37" y="142" type="line"/>
      <point x="16" y="0" type="line"/>
      <point x="412" y="0" type="line"/>
    </contour>
  </outline>
</glyph>
<glyph name="p.sc" format="2">
  <advance width="459"/>
  <anchor x="193" y="0" name="bottom"/>
  <anchor x="273" y="571" name="top"/>
  <outline>
    <contour>
      <point x="258" y="571" type="curve" smooth="yes"/>
      <point x="71" y="571" type="line"/>
      <point x="-9" y="0" type="line"/>
      <point x="177" y="0" type="line"/>
      <point x="239" y="442" type="line"/>
      <point x="251" y="442" type="line" smooth="yes"/>
      <point x="274" y="442"/>
      <point x="287" y="431"/>
      <point x="287" y="400" type="curve" smooth="yes"/>
      <point x="287" y="361"/>
      <point x="273" y="303"/>
      <point x="232" y="303" type="curve" smooth="yes"/>
      <point x="208" y="303" type="line"/>
      <point x="189" y="172" type="line"/>
      <point x="227" y="172" type="line" smooth="yes"/>
      <point x="376" y="172"/>
      <point x="471" y="264"/>
      <point x="471" y="408" type="curve" smooth="yes"/>
      <point x="471" y="517"/>
      <point x="395" y="571"/>
    </contour>
  </outline>
</glyph>
<glyph name="plus.dnom" format="2">
  <advance width="338"/>
  <outline>
    <contour>
      <point x="235" y="340" type="line"/>
      <point x="126" y="340" type="line"/>
      <point x="114" y="254" type="line"/>
      <point x="39" y="254" type="line"/>
      <point x="24" y="155" type="line"/>
      <point x="98" y="155" type="line"/>
      <point x="86" y="69" type="line"/>
      <point x="195" y="69" type="line"/>
      <point x="207" y="155" type="line"/>
      <point x="281" y="155" type="line"/>
      <point x="296" y="254" type="line"/>
      <point x="223" y="254" type="line"/>
    </contour>
  </outline>
</glyph>
<glyph name="product.tf" format="2">
  <advance width="460"/>
  <outline>
    <contour>
      <point x="530" y="696" type="line"/>
      <point x="52" y="696" type="line"/>
      <point x="30" y="555" type="line"/>
      <point x="79" y="555" type="line"/>
      <point x="-27" y="-226" type="line"/>
      <point x="139" y="-207" type="line"/>
      <point x="243" y="555" type="line"/>
      <point x="291" y="555" type="line"/>
      <point x="185" y="-226" type="line"/>
      <point x="351" y="-207" type="line"/>
      <point x="456" y="555" type="line"/>
      <point x="507" y="555" type="line"/>
    </contour>
  </outline>
</glyph>
<glyph name="r.sc" format="2">
  <advance width="470"/>
  <anchor x="208" y="0" name="bottom"/>
  <anchor x="277" y="571" name="top"/>
  <outline>
    <contour>
      <point x="265" y="571" type="curve" smooth="yes"/>
      <point x="71" y="571" type="line"/>
      <point x="-9" y="0" type="line"/>
      <point x="177" y="0" type="line"/>
      <point x="205" y="195" type="line"/>
      <point x="213" y="195" type="line"/>
      <point x="265" y="0" type="line"/>
      <point x="457" y="0" type="line"/>
      <point x="381" y="235" type="line"/>
      <point x="443" y="277"/>
      <point x="477" y="331"/>
      <point x="477" y="416" type="curve" smooth="yes"/>
      <point x="477" y="513"/>
      <point x="410" y="571"/>
    </contour>
    <contour>
      <point x="255" y="444" type="line" smooth="yes"/>
      <point x="278" y="444"/>
      <point x="291" y="432"/>
      <point x="291" y="403" type="curve" smooth="yes"/>
      <point x="291" y="365"/>
      <point x="277" y="314"/>
      <point x="240" y="314" type="curve" smooth="yes"/>
      <point x="222" y="314" type="line"/>
      <point x="240" y="444" type="line"/>
    </contour>
  </outline>
</glyph>
<glyph name="seven.osf" format="2">
  <advance width="403"/>
  <outline>
    <contour>
      <point x="433" y="571" type="line"/>
      <point x="43" y="571" type="line"/>
      <point x="23" y="431" type="line"/>
      <point x="225" y="431" type="line"/>
      <point x="-20" y="-71" type="line"/>
      <point x="139" y="-128" type="line"/>
      <point x="416" y="446" type="line"/>
    </contour>
  </outline>
</glyph>
<glyph name="seven.tosf" format="2">
  <advance width="460"/>
  <outline>
    <contour>
      <point x="478" y="571" type="line"/>
      <point x="69" y="571" type="line"/>
      <point x="49" y="431" type="line"/>
      <point x="263" y="431" type="line"/>
      <point x="19" y="-69" type="line"/>
      <point x="182" y="-128" type="line"/>
      <point x="460" y="446" type="line"/>
    </contour>
  </outline>
</glyph>
<glyph name="summation.tf" format="2">
  <advance width="460"/>
  <outline>
    <contour>
      <point x="499" y="695" type="line"/>
      <point x="79" y="695" type="line"/>
      <point x="59" y="564" type="line"/>
      <point x="191" y="358" type="line"/>
      <point x="3" y="132" type="line"/>
      <point x="-17" y="0" type="line"/>
      <point x="404" y="0" type="line"/>
      <point x="424" y="139" type="line"/>
      <point x="203" y="139" type="line"/>
      <point x="347" y="315" type="line"/>
      <point x="357" y="383" type="line"/>
      <point x="247" y="556" type="line"/>
      <point x="479" y="556" type="line"/>
    </contour>
  </outline>
</glyph>
<glyph name="t.sc" format="2">
  <advance width="401"/>
  <anchor x="165" y="0" name="bottom"/>
  <anchor x="266" y="0" name="bottomright"/>
  <anchor x="199" y="286" name="center"/>
  <anchor x="239" y="571" name="top"/>
  <outline>
    <contour>
      <point x="451" y="571" type="line"/>
      <point x="43" y="571" type="line"/>
      <point x="23" y="433" type="line"/>
      <point x="131" y="433" type="line"/>
      <point x="71" y="0" type="line"/>
      <point x="257" y="0" type="line"/>
      <point x="317" y="433" type="line"/>
      <point x="412" y="433" type="line"/>
    </contour>
  </outline>
</glyph>
<glyph name="two.tf" format="2">
  <advance width="460"/>
  <outline>
    <contour>
      <point x="269" y="716" type="curve" smooth="yes"/>
      <point x="171" y="716"/>
      <point x="96" y="668"/>
      <point x="38" y="593" type="curve"/>
      <point x="131" y="509" type="line"/>
      <point x="171" y="549"/>
      <point x="197" y="573"/>
      <point x="233" y="573" type="curve" smooth="yes"/>
      <point x="259" y="573"/>
      <point x="275" y="557"/>
      <point x="275" y="524" type="curve" smooth="yes"/>
      <point x="275" y="421"/>
      <point x="146" y="298"/>
      <point x="-13" y="132" type="curve"/>
      <point x="-29" y="0" type="line"/>
      <point x="386" y="0" type="line"/>
      <point x="425" y="143" type="line"/>
      <point x="195" y="142" type="line"/>
      <point x="352" y="292"/>
      <point x="467" y="401"/>
      <point x="467" y="537" type="curve" smooth="yes"/>
      <point x="467" y="635"/>
      <point x="404" y="716"/>
    </contour>
  </outline>
</glyph>
<glyph name="yen.tf" format="2">
  <advance width="460"/>
  <outline>
    <contour>
      <point x="544" y="696" type="line"/>
      <point x="350" y="696" type="line"/>
      <point x="246" y="405" type="line"/>
      <point x="219" y="696" type="line"/>
      <point x="36" y="696" type="line"/>
      <point x="139" y="279" type="line"/>
      <point x="103" y="0" type="line"/>
      <point x="286" y="0" type="line"/>
      <point x="324" y="279" type="line"/>
    </contour>
    <contour>
      <point x="417" y="200" type="line"/>
      <point x="30" y="200" type="line"/>
      <point x="15" y="108" type="line"/>
      <point x="401" y="108" type="line"/>
    </contour>
    <contour>
      <point x="438" y="355" type="line"/>
      <point x="51" y="355" type="line"/>
      <point x="37" y="263" type="line"/>
      <point x="424" y="263" type="line"/>
    </contour>
  </outline>
</glyph>
